/* XPM */
static char *e1bb6b49a4d4434e9eecbb81b109cfe6fMirM8n2Y3HnzVja[] = {
/* columns rows colors chars-per-pixel */
"32 32 148 2 ",
"   c #592A0F",
".  c #5A2C10",
"X  c #602F14",
"o  c #643315",
"O  c #683516",
"+  c #683915",
"@  c #663618",
"#  c #693618",
"$  c #673B18",
"%  c #6D3A1B",
"&  c #723D1E",
"*  c #6F3E20",
"=  c #743E21",
"-  c #6C4013",
";  c #6F401C",
":  c #734416",
">  c #784916",
",  c #74441D",
"<  c #79451D",
"1  c #7A4B1E",
"2  c #774023",
"3  c #7A4324",
"4  c #7C4B22",
"5  c #7F4529",
"6  c #7C5425",
"7  c #875718",
"8  c #905D1F",
"9  c #94621C",
"0  c #9F681F",
"q  c #A26A1E",
"w  c #A7741C",
"e  c #AD721D",
"r  c #A8791A",
"t  c #834E25",
"y  c #884F23",
"u  c #81452A",
"i  c #854B28",
"p  c #835224",
"a  c #8A5425",
"s  c #895E26",
"d  c #8B5429",
"f  c #875D28",
"g  c #925D23",
"h  c #985E25",
"j  c #945A2C",
"k  c #8F632A",
"l  c #976227",
"z  c #9A6420",
"x  c #9C6B25",
"c  c #966328",
"v  c #98612B",
"b  c #94682D",
"n  c #9C6D2B",
"m  c #9F7125",
"M  c #9E7331",
"N  c #A26722",
"B  c #A26E22",
"V  c #A26E2A",
"C  c #A57324",
"Z  c #AD7524",
"A  c #AD7B22",
"S  c #A3742B",
"D  c #AC7C2A",
"F  c #B47C23",
"G  c #A27532",
"H  c #AA7D34",
"J  c #B1801D",
"K  c #BE831D",
"L  c #BA891C",
"P  c #B58527",
"I  c #BB8424",
"U  c #BE8A24",
"Y  c #B4842B",
"T  c #B7882A",
"R  c #BB8B2F",
"E  c #BF912F",
"W  c #AD8032",
"Q  c #B68935",
"!  c #BA8F35",
"~  c #BB9036",
"^  c #BE943B",
"/  c #C68F1F",
"(  c #C4911E",
")  c #CC941D",
"_  c #D2961E",
"`  c #D39F1E",
"'  c #D89F1F",
"]  c #DBA117",
"[  c #DDA51A",
"{  c #DEA91E",
"}  c #E3AC1C",
"|  c #E7B11E",
" . c #EAB31E",
".. c #C08620",
"X. c #C38D22",
"o. c #C88E20",
"O. c #C69224",
"+. c #CC9625",
"@. c #CF9A24",
"#. c #CD9C2C",
"$. c #D29D22",
"%. c #C29535",
"&. c #C99B34",
"*. c #C2953B",
"=. c #C59B3E",
"-. c #C89D39",
";. c #D6A223",
":. c #DBA521",
">. c #DEAA25",
",. c #D8A62A",
"<. c #DFAE2C",
"1. c #CDA136",
"2. c #D4A533",
"3. c #D6AC37",
"4. c #DBAA33",
"5. c #DBAD3A",
"6. c #E2AD21",
"7. c #E1AF2B",
"8. c #E6B122",
"9. c #E8B320",
"0. c #E9B521",
"q. c #ECB620",
"w. c #E8B424",
"e. c #EAB524",
"r. c #E8B527",
"t. c #EBB726",
"y. c #ECB823",
"u. c #ECB824",
"i. c #E4B329",
"p. c #E5B42B",
"a. c #E5B42F",
"s. c #ECB729",
"d. c #E9B62E",
"f. c #EDBA2B",
"g. c #ECBC2F",
"h. c #E1B235",
"j. c #E8B630",
"k. c #E4B937",
"l. c #EBBA30",
"z. c #EBBA32",
"x. c #E1B338",
"c. c #EBBA38",
"v. c #CCA140",
"b. c #CFAA48",
"n. c #D4A842",
"m. c #DAAE41",
"M. c #EABD47",
"N. c #ECBF46",
/* pixels */
"0.| A -.W O # # # # & B | [ [  .} }  . . . . .0.q. . .} [ | 9. .",
"0.[ D =.4 # % % % % q $.>.} }  .} }  . . . . . . . . .} }  . . .",
"0.6.C 4 % % & & & & e C m } }  .| |  . . .y. . .q.f.e.} }  . . .",
"0. .:.A z a 4 = = = 0 w F } }  .|  . . .;.E e.<.&.S S } }  . . .",
"0. . .} [ _ I t 3 2 g I F }  . . . . . .$.B ,.x @ o 9 } }  . . .",
"9. . . .| } [ N 3 3 Z 6.>.}  . . . . . . .} | / 9 < p :.} |  . .",
"9. .q. . .|  .o.d d @. . .}  . . . . . . . . . .} ..x 6. . .s.d.",
"f. . . .|  .0. .+.X.|  .| }  . . . . .0. . . . .0.} :.| } e.N.M.",
"5.0. . .}  . .0.| { |  . .|  . .|  . . . . . . . . .| } | g.b.M ",
"f x.0. .|  . . . .} e.0.| |  .| 6.d.e.0. . . . . . .} }  .k.6   ",
"@ G a.6.| |  . . .} T D 0. .|  .c.v.~ 1.h.p.u. . . .} }  .3.% o ",
"# a #.X. . . . . .} F g }  .| l.^ $ o , n n ! e. . .} } } i.s o ",
"= l 8. . .q. . .| } } @. .| e.! , o O < 2.R , ;. . .} } | 0.P & ",
"2 I  . . .0. . . .[ } }  . .>.1 o # % % H G 8 6. .| } } |  .6.z ",
"3 X. . . . . . .} [ } } |  .$.< # % & & 3 a / 0. . . . . . . .K ",
"= I  . . . . . .} [ } |  . .| X.z 3 = 2 2 e ]  . . . . . . . .K ",
"2 U  . . . .e.l.5.4.8.|  . .;.w ) z = 3 d ) { |  . . . . . . .) ",
"D 6.| }  .f.m.G t M h. . . .{ B O.z = i I [ }  . . . . . . . .} ",
"6. .} [ 8.%.p & = = H 7. . . .} | O.S X.} } }  .q.0. . . . . . .",
"8. .} [ ;.4 & 2 3 3 3 c 6. .|  . . .|  .| }  . .0.q.q. .f.l.l.f.",
"c. .} [ @.< = 3 5 u 5 a :. .|  . .|  . .} |  . . . .q.l.n.H H Q ",
"Q j.} } 6.C a h F F F I 9. . . . .|  . . . . . .0.l.5.W ; o o @ ",
"* *.8.}  .} ' $.[ [ } |  . . . .}  . .|  . . .0.2.b , # # % % & ",
"% x } }  . .0. .} }  . . . . . . . . . . .| } 0.x X O # % & & & ",
"= A } } |  . . .| }  . . . . . .d.4.h.c.a.e.|  .U & # % & = 2 3 ",
"V >.} }  . . . .| }  . . . . .0.Q % p G k T 8. .| O.x a 3 2 3 3 ",
"+. .} }  . . . .} } | 0. .} } 0.A O o # # % I  . . .0.6.O.a 3 5 ",
"6. .| }  . . . .| }  . . .} }  .6.F < & = , U q.| 7.<.e.0.@.v j ",
"0. . . .{ r r ) 8.{ {  . .[ }  . .} ..y g I 6. .9.Y p n &.y.6.;.",
"0. . .9.9 . . + 7 > - L  .} }  .} } } X.:. . . . .:.F y d ,. . .",
"8. . .` : O o o o o o : ` } { | } |  .}  . . . . . . .) Z @. . .",
"9. . .J C < O O O O O + ( } [ } } }  . . . . .| }  . .[ [ 0. . ."
};
