/* XPM */
static char *_92f2bac926b4d00a5aafa1b59cc619161HtRdtLz0OlhvvL[] = {
/* columns rows colors chars-per-pixel */
"32 32 173 2 ",
"   c None",
".  c #010102",
"X  c #0C0104",
"o  c #0C0B0B",
"O  c #150105",
"+  c #1E0106",
"@  c #1B0108",
"#  c #13080B",
"$  c #14110F",
"%  c #0E1010",
"&  c #191613",
"*  c #260107",
"=  c #23010C",
"-  c #2B010C",
";  c #3B010C",
":  c #350109",
">  c #3A0114",
",  c #3D0D15",
"<  c #2B1016",
"1  c #332308",
"2  c #2A241F",
"3  c #2B2C2C",
"4  c #3A312A",
"5  c #353636",
"6  c #4D010D",
"7  c #47010D",
"8  c #450113",
"9  c #4B0115",
"0  c #490119",
"q  c #520112",
"w  c #5A0114",
"e  c #5D011E",
"r  c #50011B",
"t  c #6A0012",
"y  c #68011A",
"u  c #730313",
"i  c #7A0111",
"p  c #730019",
"a  c #7D0817",
"s  c #652D14",
"d  c #650121",
"f  c #720125",
"g  c #5A222B",
"h  c #6B2732",
"j  c #765210",
"k  c #51453B",
"l  c #55493E",
"z  c #674825",
"x  c #6B553D",
"c  c #5F5145",
"v  c #674349",
"b  c #635548",
"n  c #666159",
"m  c #746354",
"M  c #6C6D6D",
"N  c #656768",
"B  c #767677",
"V  c #8D0313",
"C  c #83001C",
"Z  c #860618",
"A  c #9C0116",
"S  c #93001F",
"D  c #940016",
"F  c #921A1C",
"G  c #AB0015",
"H  c #A40018",
"J  c #AC0019",
"K  c #A50017",
"L  c #B6001A",
"P  c #B9001B",
"I  c #842F17",
"U  c #94341D",
"Y  c #990020",
"T  c #971025",
"R  c #960030",
"E  c #9D0032",
"W  c #A40122",
"Q  c #AA0023",
"!  c #A2002A",
"~  c #B40024",
"^  c #BC0026",
"/  c #B90921",
"(  c #A50030",
")  c #B20038",
"_  c #B60035",
"`  c #C0001E",
"'  c #C30023",
"]  c #CB0026",
"[  c #C50129",
"{  c #CD0129",
"}  c #D5002C",
"|  c #D8002D",
" . c #C9003E",
".. c #DC0030",
"X. c #D4003F",
"o. c #D41639",
"O. c #E10035",
"+. c #E5003A",
"@. c #EC003D",
"#. c #94540F",
"$. c #956113",
"%. c #9F6A17",
"&. c #977014",
"*. c #A36717",
"=. c #AB7515",
"-. c #B57416",
";. c #987C35",
":. c #CA0040",
">. c #DB0043",
",. c #EE0041",
"<. c #E50042",
"1. c #F40049",
"2. c #F60047",
"3. c #C23C46",
"4. c #D13449",
"5. c #80585D",
"6. c #93545F",
"7. c #B5454A",
"8. c #876A46",
"9. c #84715F",
"0. c #907F5B",
"q. c #8E5D64",
"w. c #8D7966",
"e. c #957E68",
"r. c #957076",
"t. c #87656A",
"y. c #A57F6E",
"u. c #C84951",
"i. c #D24856",
"p. c #C35D5B",
"a. c #C0645E",
"s. c #C55D61",
"d. c #CF7F76",
"f. c #B58516",
"g. c #AF8724",
"h. c #B18825",
"j. c #CE841B",
"k. c #D18417",
"l. c #D89D1A",
"z. c #CA9518",
"x. c #FA9F1E",
"c. c #DCA318",
"v. c #E6AA19",
"b. c #FBA01E",
"n. c #EDB21C",
"m. c #FCBB1D",
"M. c #F5B71D",
"N. c #97816D",
"B. c #85807B",
"V. c #9C8672",
"C. c #A29269",
"Z. c #A38C75",
"A. c #A88F79",
"S. c #AC947C",
"D. c #CE8D7E",
"F. c #827E81",
"G. c #9B9C9B",
"H. c #B69B82",
"J. c #AC8D93",
"K. c #A58489",
"L. c #BEA288",
"P. c #A8A39D",
"I. c #B8B7B7",
"U. c #CD9D88",
"Y. c #C7A88E",
"T. c #CDAF93",
"R. c #CEB194",
"E. c #D0B295",
"W. c #C3C5C4",
"Q. c #D0CCCC",
"!. c #EBEDED",
"~. c #FDFEFE",
"^. c #F1F1F2",
/* pixels */
"                              > f e                             ",
"                            = _ @.<.) r                         ",
"                            @ W | } +.X.d                       ",
"                    0 E ) ! p w Q } } O.>.e                     ",
"                  O _ @...| | ~ t C ^ } +. .                    ",
"                  X p W ^ ^ [ { { W S ~ } ,.E                   ",
"                      X - p W ^ } } } { } O.>.>                 ",
"                      ; W } } } } } } } } | 2.:.e X             ",
"                    7 ^ | } } } } } } } } } ..,.1.R =           ",
"                  6 ~ } } } } } } } } } } } } } O.2.) -         ",
"                ; J { } } } } } } } } } } } } } } ..2.) =       ",
"              * A ` } } } } } } } } } } } } } } } } | ,.R       ",
"              u P ' } } } } } } } } { } } } } } } } } } +.d     ",
"            ; J P ] } } } } } } } C q ' } } } } } } } } } ( -   ",
"      .     i P P { } } } } } } ~ @ . ; Q } } } } } } ^ q 8 d   ",
"  .   . . - K P P } } } } } } } S X . . @ a ] | } } S - . X f   ",
". . . . . 6 P L P } } } } } } } { S < % . . ; Y W q X . X ; ! 8 ",
". . . . . i P L P } } } } } } } } ^ J.W.B 5 o X X o 5 N g ' } q ",
"    . . X D P L P } } } } ' ] } } T Q.~.I.B I.N 3 B !.~.t.L } w ",
"    . . + A P L P } } } { P P } ] Z I.~.G.M ^.G.M F.K.q.h K { y ",
"        * H P L P { { } ] P P ] ' A v r.6.5.0.h.g.z i G L L ] w ",
"        + A P L P P P ] ] P P ] P L A G V #.v.m.m.v.$.Z L P ' 8 ",
"        O V P P L L L ' { P P { ' P P A *.M.m.m.m.m.m.=.a ' ^ - ",
"          t P L P L P ] } { { o.4.u.7.s c.m.m.m.m.m.m.m.%.W Y X ",
"          : J P L L P ] o.i.d.U.T.R.S.n C.;.&.f.z.c.n.m.n.I 9   ",
"          . t P P L P 3.D.T.R.R.T.R.H.B.P.8.$.-.-.=.$.$.l.j .   ",
"            O C P / p.Y.R.T.T.T.T.T.T.V.z k.b.x.x.j.U ~ F 1     ",
"              O u a.R.T.T.T.T.T.T.T.T.R.H.8.*.k.%.8.s.[ q .     ",
"                X k A.T.R.T.T.T.T.T.T.T.R.Y.e.x e.T.y., .       ",
"                  . & l N.L.T.E.E.R.R.R.R.E.E.Y.Z.c & .         ",
"                      . o 2 k m w.V.Z.Z.N.9.b 4 $ .             ",
"                            . . X o % o o . .                   "
};
