/* XPM */
static char *result[] = {
/* columns rows colors chars-per-pixel */
"25 35 208 2 ",
"   c #262420",
".  c #312F33",
"X  c #2E3439",
"o  c #303233",
"O  c #303337",
"+  c #373736",
"@  c #353939",
"#  c #3B3B3E",
"$  c #51462F",
"%  c #42433F",
"&  c #5D5A3F",
"*  c #6F673A",
"=  c #796A3F",
"-  c #2E3742",
";  c #3C464C",
":  c #414244",
">  c #434945",
",  c #494847",
"<  c #514F42",
"1  c #4C504E",
"2  c #565444",
"3  c #585147",
"4  c #525048",
"5  c #5F5D4E",
"6  c #675D44",
"7  c #675E47",
"8  c #695D42",
"9  c #6A5F44",
"0  c #60574A",
"q  c #665E53",
"w  c #6E6041",
"e  c #6F604E",
"r  c #7E6B45",
"t  c #75664C",
"y  c #796B4D",
"u  c #7D7245",
"i  c #82733B",
"p  c #897544",
"a  c #8D7544",
"s  c #84744B",
"d  c #83744D",
"f  c #8D794A",
"g  c #967B44",
"h  c #9A7F48",
"j  c #9E7E4B",
"k  c #806E50",
"l  c #847755",
"z  c #8B7353",
"x  c #8B7754",
"c  c #867852",
"v  c #897850",
"b  c #88844F",
"n  c #998B45",
"m  c #94824E",
"M  c #9C8249",
"N  c #978A4D",
"B  c #918057",
"V  c #9C8F5F",
"C  c #A3854B",
"Z  c #A58E4B",
"A  c #A58F4B",
"S  c #AA9043",
"D  c #B69745",
"F  c #B4964D",
"G  c #B1994D",
"H  c #B89C48",
"J  c #BD9B4C",
"K  c #A29754",
"L  c #BD9E50",
"P  c #B69D58",
"I  c #AEA043",
"U  c #B4A04E",
"Y  c #BFB059",
"T  c #898462",
"R  c #AFAB62",
"E  c #B5AD66",
"W  c #B3AF6C",
"Q  c #BBB267",
"!  c #BEB367",
"~  c #B3AC70",
"^  c #C3AB4D",
"/  c #C5A755",
"(  c #CBAA54",
")  c #D5AD54",
"_  c #C8B154",
"`  c #DABC56",
"'  c #D7B858",
"]  c #E0BF57",
"[  c #C7B662",
"{  c #CFB661",
"}  c #C4B76B",
"|  c #D1BF65",
" . c #D1BB68",
".. c #C0AB70",
"X. c #C2B871",
"o. c #CBBB70",
"O. c #CCBE70",
"+. c #F7CF4F",
"@. c #E0C254",
"#. c #E3C65C",
"$. c #E5CA5D",
"%. c #EDCF5D",
"&. c #F7CE54",
"*. c #FACE56",
"=. c #FDCF55",
"-. c #F6CD59",
";. c #F8CE59",
":. c #F9CC5F",
">. c #F5D450",
",. c #F5D752",
"<. c #F7D557",
"1. c #F6D757",
"2. c #F9D450",
"3. c #FAD456",
"4. c #F4DA56",
"5. c #F8DE55",
"6. c #F2D15B",
"7. c #F7D05A",
"8. c #F8D45B",
"9. c #FCD65A",
"0. c #FCD25C",
"q. c #F7DD5E",
"w. c #FCDC59",
"e. c #FDDD5B",
"r. c #F8D95C",
"t. c #FCE059",
"y. c #F9E25D",
"u. c #CCC36B",
"i. c #D7C061",
"p. c #DAC363",
"a. c #DAC96C",
"s. c #DDD76F",
"d. c #CFC176",
"f. c #CAC07E",
"g. c #D8C771",
"h. c #DDCF77",
"j. c #D7D172",
"k. c #EECC63",
"l. c #E1C968",
"z. c #E5CD6C",
"x. c #E6CE6F",
"c. c #E4D06D",
"v. c #E8D56E",
"b. c #F2D164",
"n. c #F8D560",
"m. c #FCD763",
"M. c #F9D667",
"N. c #F7DA63",
"B. c #F3D864",
"V. c #F9DA60",
"C. c #FADC61",
"Z. c #FADD67",
"A. c #F3D76A",
"S. c #F8D66F",
"D. c #F2DB6B",
"F. c #F8DB6B",
"G. c #FCDB6C",
"H. c #EFD473",
"J. c #E8D174",
"K. c #EED873",
"L. c #EBDC74",
"P. c #EAD17D",
"I. c #E4DD7F",
"U. c #F4D670",
"Y. c #F9D275",
"T. c #F0DA76",
"R. c #FBDB76",
"E. c #F3D978",
"W. c #F9E462",
"Q. c #F9E666",
"!. c #F7E967",
"~. c #F6ED65",
"^. c #FDE965",
"/. c #FBEE66",
"(. c #FEEC64",
"). c #FDEE65",
"_. c #F6E169",
"`. c #F7E36F",
"'. c #FBE46A",
"]. c #F8E76A",
"[. c #FAEB6A",
"{. c #FDE869",
"}. c #FEEF6D",
"|. c #F9F262",
" X c #FEF065",
".X c #FDF169",
"XX c #FDF66D",
"oX c #EEE674",
"OX c #E8E279",
"+X c #ECE378",
"@X c #F1EA75",
"#X c #F9EE7E",
"$X c #FCF272",
"%X c #FFF473",
"&X c #FEF873",
"*X c #FEF875",
"=X c #FDF27D",
"-X c #E1CD80",
";X c #E1CC81",
":X c #F2DA82",
">X c #F6DF82",
",X c #FCDB80",
"<X c #F8E086",
"1X c #FCE08A",
"2X c #F9F183",
"3X c #FBE194",
"4X c #FEE699",
"5X c None",
/* pixels */
"5X5X5X5X5X5X5X5X5X5X5X5X5X5X5X5X5X5X5X5X5X5X5X5X5X",
"5X5X5X5X5X5X5Xo.Q W 5X5X5X5X5X5X5X5X5X5X5X5X5X5X5X",
"5X5X5X5X5X5Xh.T.T.L.x.l.i. .o.d.5X5X5X5X5X5X5X5X5X",
"5X5X5X5X5Xd.P.>X<XY.:.0.8.M.U.H.P.-Xf.5X5X5X5X5X5X",
"5X5X5X5X5Xh.:X4X3XY.:.*.+.+.3.8.M.E.O.5X5X5X5X5X5X",
"5X5X5X5Xd.L.<X4X:Xb.-.&.+.2.2.<.B.c.K 5X5X5X5X5X5X",
"5X5X5X5Xh.K.1X<XA.6.-.&.+.>.,.1.D.[ u < 5X5X5X5X5X",
"5X5X5X} J.,X1XR.7.&.&.*.*.<.<.N.z.Z 8 , 5X5X5X5X5X",
"5X5X5Xg.U.,X,XS.-.&.*.=.=.0.8.M.{ p 7 : 5X5X5X5X5X",
"5X5XX.J.R.,XS.b.-.;.*.=.=.0.m.k.F r 2 5X5X5X5X5X5X",
"5X5Xg.E.R.R.B.6.-.3.3.<.3.9.M.' M t % 5X5X5X5X5X5X",
"5XE H.M.M.V.1.<.8.3.2.r.r.r.%.L f 6 . 5X5X5X5X5X5X",
"5Xu.F.m.V.1.,.1.n.9.3.r.q.r.@.S p $   5X5X5X5X5X5X",
"I v.F.G.Z.4.4.r.M.m.9.r.e.e.%._ G i 9 & < 5X5X5X5X",
"$.N.C.C.V.5.5.w.N.V.w.w.w.e.C.D.v.a.| [ ! ~ T @ 5X",
"S.F.Z.C.e.w.5.5.q.q.y.t.t.y.W.'.].[.^.^.`.a.V 4 X ",
"/ { p.$.%.7.9.w.N._.W.y.y.W.Q.!./.(.(.'.k.L p q # ",
"8 d N A G / ) ' #.D.].Q.Q.!.~.~. X(.'.k.J g t 4 O ",
"5X5X5X5X= a j A ^ %.Q.{.[.~.|.|. XQ.$.J h k 3 X 5X",
"5X5X5X5X5X5X5Xw U B.^.{.[.~..X.XQ.#.H g k 3 o 5X5X",
"5X5X5X5X5X5X5X5XY ]. X(.)..X}.'.#.J M k 0 + 5X5X5X",
"5X5X5X5X5X5X5Xb s..X/..X.X}.'.] J C z 9 5X5X5X5X5X",
"5X5X5X5X5X5X5XR @XXXXXXX$X_.] D M z e 5X5X5X5X5X5X",
"5X5X5X5X5X5X5Xj.$XXX&X%X_.` D M v w 5X5X5X5X5X5X5X",
"5X5X5X5X5X5XQ oX*X&X$X_.' F M x 5X5X5X5X5X5X5X5X5X",
"5X5X5X5X5X5Xh.$X&X%XA.( C B c 5X5X5X5X5X5X5X5X5X5X",
"5X5X5X5X5X5XOX*X}.A.( h v 5X5X5X5X5X5X5X5X5X5X5X5X",
"5X5X5X5X5XI.2X=Xv.L g s 5X5X5X5X5X5X5X5X5X5X5X5X5X",
"5X5X5X5X5X+X#Xz.P p y 5X5X5X5X5X5X5X5X5X5X5X5X5X5X",
"5X5X5X5X5XL.a.Z r y 5X5X5X5X5X5X5X5X5X5X5X5X5X5X5X",
"5X5X5X5X;X| n * 7 5 5X5X5X5X5X5X5X5X5X5X5X5X5X5X5X",
"5X5X5X5X..m 6 2 5 5X5X5X5X5X5X5X5X5X5X5X5X5X5X5X5X",
"5X5X5X5Xl 7 4 > 5X5X5X5X5X5X5X5X5X5X5X5X5X5X5X5X5X",
"5X5X5X5X5X1 ; 5X5X5X5X5X5X5X5X5X5X5X5X5X5X5X5X5X5X",
"5X5X5X5X- X 5X5X5X5X5X5X5X5X5X5X5X5X5X5X5X5X5X5X5X"
};
