/* XPM */
static char *_2d7ab43ef9646968f5624161f99a53f6EvXXAvTWVej1v7j[] = {
/* columns rows colors chars-per-pixel */
"32 32 210 2 ",
"   c None",
".  c #7B3211",
"X  c #79310E",
"o  c #055409",
"O  c #0B540E",
"+  c #0B5B0F",
"@  c #0E5C11",
"#  c #115C15",
"$  c #135D19",
"%  c #094F0D",
"&  c #3C550B",
"*  c #06660C",
"=  c #0C6C13",
"-  c #0E6113",
";  c #116215",
":  c #146916",
">  c #0F7D1A",
",  c #137C1B",
"<  c #15701B",
"1  c #04720A",
"2  c #2F7E1D",
"3  c #1C7B24",
"4  c #24752A",
"5  c #2E7F36",
"6  c #307F34",
"7  c #61590A",
"8  c #706615",
"9  c #745D24",
"0  c #7A722A",
"q  c #843B16",
"w  c #98461B",
"e  c #875F19",
"r  c #8B6C13",
"t  c #9C4E24",
"y  c #A25D33",
"u  c #85702B",
"i  c #A96D28",
"p  c #A96D31",
"a  c #C77E34",
"s  c #BC7947",
"d  c #BA6A41",
"f  c #08840F",
"g  c #07860F",
"h  c #0B8B13",
"j  c #0C8415",
"k  c #128B19",
"l  c #089511",
"z  c #0C9B14",
"x  c #1C901C",
"c  c #288C19",
"v  c #38881F",
"b  c #32901F",
"n  c #289816",
"m  c #1A8B24",
"M  c #159A29",
"N  c #35883C",
"B  c #31922A",
"V  c #1AA533",
"C  c #1EB33C",
"Z  c #25A030",
"A  c #34A431",
"S  c #5C8E30",
"D  c #569637",
"F  c #738B3C",
"G  c #48A227",
"H  c #59A62C",
"J  c #49A63B",
"K  c #58AD36",
"L  c #7EB23F",
"P  c #60AC38",
"I  c #3E9249",
"U  c #25BC48",
"Y  c #39AD43",
"T  c #4B9846",
"R  c #4D9F52",
"E  c #5C824E",
"W  c #6B8F4F",
"Q  c #4CA558",
"!  c #47B252",
"~  c #4DAE4A",
"^  c #70AB40",
"/  c #64A95B",
"(  c #79B845",
")  c #5AB365",
"_  c #55B564",
"`  c #59AD65",
"'  c #6CBA77",
"]  c #70B76A",
"[  c #3CC65B",
"{  c #37C454",
"}  c #2CC14F",
"|  c #3FC860",
" . c #56CC5E",
".. c #5DCF59",
"X. c #5BC552",
"o. c #5BD05A",
"O. c #68CC57",
"+. c #64D25C",
"@. c #6BD25C",
"#. c #73D35E",
"$. c #7BD35F",
"%. c #76C95B",
"&. c #40C961",
"*. c #4CCE68",
"=. c #59C966",
"-. c #52CF71",
";. c #56D371",
":. c #6DD66B",
">. c #68D66D",
",. c #75D565",
"<. c #7BD565",
"1. c #73D769",
"2. c #7AD76A",
"3. c #69C577",
"4. c #69D774",
"5. c #69D874",
"6. c #6AD67B",
"7. c #6AD97C",
"8. c #67D672",
"9. c #62CF69",
"0. c #8D8023",
"q. c #A6843E",
"w. c #A2852F",
"e. c #998656",
"r. c #9C974F",
"t. c #B88845",
"y. c #B89168",
"u. c #CD8C59",
"i. c #DDA85A",
"p. c #E3A65B",
"a. c #DC9765",
"s. c #CF9F75",
"d. c #D59E70",
"f. c #D88D63",
"g. c #E19763",
"h. c #CFA76F",
"j. c #D9A167",
"k. c #DCAC78",
"l. c #E5AC6A",
"z. c #E9B16E",
"x. c #E3A777",
"c. c #E7B27D",
"v. c #E9B377",
"b. c #82D463",
"n. c #79C986",
"m. c #6DD880",
"M. c #71DA86",
"N. c #75D98A",
"B. c #79DA8F",
"V. c #74D687",
"C. c #7DDB93",
"Z. c #7FD591",
"A. c #ACAB89",
"S. c #C6AE89",
"D. c #DEAB84",
"F. c #DAA588",
"G. c #DFB78E",
"H. c #DAB798",
"J. c #C7B699",
"K. c #E3AD8A",
"L. c #E3AA83",
"P. c #E4B086",
"I. c #E5B98B",
"U. c #E7B789",
"Y. c #E7B492",
"T. c #E9BB94",
"R. c #E3B89B",
"E. c #EABE9C",
"W. c #E4B892",
"Q. c #D8BFB2",
"!. c #ECBFA1",
"~. c #9AC598",
"^. c #80DA95",
"/. c #8CD49B",
"(. c #85DB9A",
"). c #8ADB9E",
"_. c #84D495",
"`. c #92D39C",
"'. c #A6C69A",
"]. c #8DDDA2",
"[. c #93DBA5",
"{. c #96DDA8",
"}. c #9ADEAB",
"|. c #9AD4A4",
" X c #A7CDA8",
".X c #A4D7AB",
"XX c #BACCB7",
"oX c #A9DCB5",
"OX c #BBD4BC",
"+X c #9DE0AE",
"@X c #EBC09C",
"#X c #DECABB",
"$X c #DCC0B2",
"%X c #D8C3A9",
"&X c #ECC2A4",
"*X c #EBC8A6",
"=X c #E6CAB7",
"-X c #BEE1C6",
";X c #D7CEC7",
":X c #C9DDCB",
">X c #D9D3CA",
",X c #D6DBD4",
"<X c #DCDAD6",
"1X c #DCDEDA",
"2X c #E2CFC3",
"3X c #E6D5CB",
"4X c #E5DAD3",
"5X c #E1DAD6",
"6X c #D2E1D4",
"7X c #E2E1E1",
/* pixels */
"                                                                ",
"                            o.o.                                ",
"                        o.o.@.#.,.              T.E.@X          ",
"                    ..+.@.#.,.,.:.>.        T.E.T.P.P.E.        ",
"                ..+.@.$.<.,.:.:.8.4.7.    *XE.T.G.=Xx.a.Y.      ",
"            ..+.#.$.b.<.1.:.8.6.7.M.n.] H.W.&XR.#X7X4XD.f.E.    ",
"            O.b.b.b.1.:.8.6.m.V.B.Z.n.D i P.&XK.5X2X=X&Xf.x.    ",
"            K %.2.:.8.6.m.N.B.^.(._.3.v r D.&XL.Q.5X3X=XL.a.&X  ",
"        H G n Z 9.6.7.N.B.^.(.).).).3.2 8 h.&XE.H.$X;X4XY.g.&X  ",
"        H c g l Y M.B.^.(.).].[.[.[.n.B 7 t.&X!.R.3X>X4XK.x.&X  ",
"      G b b h l z =.(.).].[.{.{.{.[.`.R & i D.!.K.$X5X=Xx.T.    ",
"    K b f k x h l Z _.[.{.{.}.}.|.OX,X XE 9 t.P.&XL.R.T.T.@X    ",
"    P L b h h k f g _ {.}.}..XoX~.>X1X<X;XW 8 w.h.W.T.E.T.      ",
"      ^ ( B f j , 1 m _.}.[.'.1X X,XOXOX,Xn.T S 0.q.u.          ",
"        J ~ m 1 , = * ` +X[.~.1X.X,X:X X,X}._.n.                ",
"          Y ! 3 + < o 4 /.`.XX7X:X<X6X|.oX}.{.[.[.              ",
"            ! Q ; ; - O ' /.~.OX,X7X-X}.}.}.{.{.[.              ",
"              ) I O : o 6 [.[./.|.oX}.}.}.{.[.].].(.            ",
"                ) 4 + @ + ' +X}.}.}.{.{.[.].].(.^.C.            ",
"          l.i.r./ Q # # o N [.}.{.{.[.].).(.^.B.M.7.6.          ",
"        *Xl.p.t.F / 5 O + @ ' {.[.].).(.C.B.M.7.5.8.:.1.        ",
"      3XU.z.p.S.u F R $ @ o N (.).(.C.B.M.7.5.>.1.,.,.#.+.      ",
"      F.x.z.I.<XA.9 W 5 O + - ) C.B.M.7.5.:.1.<.<.#.@.+.>.      ",
"      d d.v.G.>XJ.u 0 T # O * 3 9.7.5.:.1.<.<.#.@.+.=.*.;.      ",
"      w u.U.l.#X%Xq.e W 4 % @ = A :.2.b.b.$.@.+. .[ &.          ",
"      . y U.v.H.;XS.e e.  @ O = > J b.b.#.@. .{ { *.            ",
"      X q d.c.#X<XH.i e.  : O @ > m A X. .{ } [ -.              ",
"        X y c.L.>Xk.a y.    ; @ : M V C U } &.-.                ",
"        . q s c.U.p.j.s.      : = , V U { |                     ",
"          q w s j.l.x.          < k M U |                       ",
"              t p                   V [                         ",
"                                                                "
};
