/* XPM */
static char *_335a3644ce74574ccae4dfb5f223c9d7fMoCniYA4zSCPkY[] = {
/* columns rows colors chars-per-pixel */
"32 32 198 2 ",
"   c None",
".  c #311E17",
"X  c #321F18",
"o  c #341F1A",
"O  c #332019",
"+  c #32211A",
"@  c #33221B",
"#  c #34211A",
"$  c #35211A",
"%  c #35201B",
"&  c #34211B",
"*  c #35221B",
"=  c #36221B",
"-  c #33211D",
";  c #32201E",
":  c #33211F",
">  c #34211D",
",  c #35221C",
"<  c #36231C",
"1  c #37231C",
"2  c #37221D",
"3  c #36231D",
"4  c #34221E",
"5  c #35221E",
"6  c #36231F",
"7  c #37241D",
"8  c #37241E",
"9  c #3A231B",
"0  c #3A261B",
"q  c #38231E",
"w  c #38241D",
"e  c #3B241C",
"r  c #38261C",
"t  c #39271D",
"y  c #3B271C",
"u  c #3A261D",
"i  c #38251E",
"p  c #39251E",
"a  c #39241F",
"s  c #3B241E",
"d  c #39261F",
"f  c #3B271E",
"g  c #3A261F",
"h  c #3C251D",
"j  c #3D261E",
"k  c #3E271F",
"l  c #3A281E",
"z  c #3B291F",
"x  c #3C281D",
"c  c #3C281F",
"v  c #321F21",
"b  c #311D23",
"n  c #311E22",
"m  c #321E22",
"M  c #321E23",
"N  c #321F23",
"B  c #331F23",
"V  c #341F24",
"C  c #351F24",
"Z  c #332022",
"A  c #342220",
"S  c #362221",
"D  c #352122",
"F  c #342123",
"G  c #352123",
"H  c #362023",
"J  c #352223",
"K  c #372322",
"L  c #372223",
"P  c #372420",
"I  c #332024",
"U  c #342125",
"Y  c #352125",
"T  c #352224",
"R  c #372325",
"E  c #362126",
"W  c #352326",
"Q  c #372426",
"!  c #382521",
"~  c #392620",
"^  c #3A2720",
"/  c #3B2720",
"(  c #3B2621",
")  c #392622",
"_  c #3E2721",
"`  c #3C2722",
"'  c #392526",
"]  c #392527",
"[  c #3A2627",
"{  c #3C2821",
"}  c #3F2820",
"|  c #3D2922",
" . c #3D2823",
".. c #3F2822",
"X. c #3E2A23",
"o. c #3E2924",
"O. c #3F2B24",
"+. c #3B2728",
"@. c #3C2829",
"#. c #41291F",
"$. c #402A1F",
"%. c #402921",
"&. c #412B20",
"*. c #422A20",
"=. c #432B21",
"-. c #402923",
";. c #412A22",
":. c #432A23",
">. c #422B23",
",. c #422C21",
"<. c #402C23",
"1. c #432D22",
"2. c #442C20",
"3. c #442C22",
"4. c #452D23",
"5. c #442E23",
"6. c #462E22",
"7. c #472F23",
"8. c #412A24",
"9. c #422B25",
"0. c #442B24",
"q. c #412D24",
"w. c #402C25",
"e. c #432C24",
"r. c #422E25",
"t. c #412D26",
"y. c #432C26",
"u. c #432F26",
"i. c #422E27",
"p. c #452C25",
"a. c #442D25",
"s. c #452F24",
"d. c #462E24",
"f. c #472F25",
"g. c #452E26",
"h. c #462F27",
"j. c #492E23",
"k. c #4A2F24",
"l. c #432F28",
"z. c #463025",
"x. c #443027",
"c. c #473126",
"v. c #483024",
"b. c #493125",
"n. c #483026",
"m. c #493127",
"M. c #483227",
"N. c #4C3126",
"B. c #453128",
"V. c #443029",
"C. c #473028",
"Z. c #463229",
"A. c #45312A",
"S. c #47332A",
"D. c #46322B",
"F. c #483129",
"G. c #493328",
"H. c #4A3228",
"J. c #4B3329",
"K. c #49322A",
"L. c #4A332B",
"P. c #4A3429",
"I. c #48342B",
"U. c #4B352A",
"Y. c #4C342A",
"T. c #4D352B",
"R. c #4C362B",
"E. c #4F372B",
"W. c #48342D",
"Q. c #4B342C",
"!. c #4A362D",
"~. c #4C352D",
"^. c #4D372C",
"/. c #4E362C",
"(. c #4F372D",
"). c #4D362E",
"_. c #4E372F",
"`. c #4E382D",
"'. c #4F392E",
"]. c #52372C",
"[. c #50382C",
"{. c #51392D",
"}. c #53382D",
"|. c #50382E",
" X c #51392F",
".X c #503A2F",
"XX c #523A2E",
"oX c #533B2F",
"OX c #54392E",
"+X c #553A2F",
"@X c #4F3830",
"#X c #503931",
"$X c #513B30",
"%X c #523A30",
"&X c #533B31",
"*X c #533D32",
"=X c #543C32",
"-X c #543D35",
/* pixels */
"5.$.s.1.$.5.&.5.5.&.5.5.k.j.k.N.M.M.5.5.5.5.&.&.s.&.5.5.s.e.&.Q.",
"1.1.`.$X X=X X X$X X X X+X X X+X X X X X$X$X$X$X^.^. X`.^.G.e.G.",
"1.&.U.^.R. X X X X X X X X X X+X X X X X X X X X*X*X-X$X$X^.e.s.",
"s.1.U.G.M.R.^.^. X X X X X].]. X X X X X X X X X$X X@XG.G.Q.&.9.",
"&.&.Q.^.^.`.^.^.&X&X$X$X X X X X X X X X$X$X$X$X`.^.^.s.G.G.e.e.",
"&.&.G.G.M.R.R.^.R.R.^.R.R. X X X X X X^.^.R.Y.R.^.U.^.G.Q.G.&.e.",
"C.s.G.G.s.L.U.^.G.R.R.R.^. X$X X$X$X X^.^.R.U.U.Q.G.Q.G.^.G.X.e.",
"k k G.G.G.Q.G.G.R.R.R.G.M.R.G.M.G.G.Y.R.R.R.R.^.^.G.G.G.L.s.f e.",
"s.&.s.G.G.G.L.C. XU.R.s.G.M.R.R.G.R.G.`.M.R.C.G.s.G.z.Q.C.C.X.O.",
"&._ e.G.G.L.Q.G.M.z.G.M.^.R. X XM.G.G.U.G.U.G.G.G.Q.U.C.C.O.{ { ",
"f f e.C.G.G.Q.L.Q.G.R.M.R.M.G.s.G.z.L.G.G.G.G.G.C.C.Q.e.W.X.X.X.",
"f f e.C.C.h.G.G.G.C.U.z.R.G.R.M.U.G.^.C.^.s.G.C.x.C.C.e.C.O.X.X.",
"/ / e.C.e.e.h.h.G.G.G.C.R.G.U.G.G.C.Q.s.L.s.C.h.x.C.l.C.e.e.f / ",
"/ f X.l.e.e.h.s.G.C.G.s.M.5.z.5.s.s.s.s.C.s.C.s.e.C.e.D.e.e.f X.",
"/ f X.e.e.e.s.s.&.&.e.&.z.s.G.z.s.s.s.s.s.h.e.x.e.l.e.l.e.O./ X.",
"X.f X.e.e.e.s.e.G.s.G.s.M.5.s.1.s.G.e.C.9.h.e.e.C.x.C.O.C./ f f ",
"X.9 k s.s.e.e.&.&.&.&.&.5.5.s.s.3.3.&.5.5.1.1.&.e.e.&.e.e.k 9 k ",
"k 9 k s.e.&.e.e.s.s.5.5.5.5.3.3.3.3.5.5.5.5.1.1.e.e.&.&.&.k 9 _ ",
"f < / e.9.&.e.s.&.&.e.s.s.s.0.0.0.0.0.0.s.9.e.&.9.9.9.9.O.f < / ",
"f = f O.&.X.9.9.k X.&.&.&.&.&.&.0.9.&.&.9.9.&.&.9.9.&.&.X.f = f ",
"/ = < _ O.O.&._ 9.9.&.X.X.X.X.X.9.&.&.9.9.9.&.X.9.9.X._ _ < = f ",
"/ o = / X.X._ f 9.&.X.X.X.X.&.&.X.X.X._ X.X.X._ &.X._ _ _ < o < ",
"7 X = / _ _ / f / / k k X.X.&.&.X.k k k _ X.X./ X.X./ / X.< O 7 ",
"= . = _ _ / / f / _ k k k k k f k k k k k k X./ f / f / X.< X < ",
"= O = f l l f f f f f f f 0 0 0 f f f f f f f f l f f l f = = = ",
"O X O 7 / l f l f f c c c c c c f f f f f f f f l f f f 7 = O O ",
"O O = 7 / f f / f f f f / f / f f f f f f f f / f f 7 7 < = O O ",
"- - < < < < 7 7 < < < < q q q q f q < < < < < 7 7 < < < < < - < ",
"- - - - - F F F F F P / / / / / / / P < < < F F F F F - - - - - ",
"v Z F Z Z T T T ' ' ' ' +.+.+.+.@.+.+.' ' ' ' ' ' ' Q T F F Z v ",
"  v v v v I T I V V V F F F F F F F F F F F T T I T T v v v v   ",
"                                                                "
};
